<svg width="177" height="28" viewBox="0 0 177 28" fill="none" xmlns="http://www.w3.org/2000/svg">
<path d="M9.00687 19.1286C9.00687 20.4593 9.00687 21.79 9.00687 23.1207C9.00586 23.7092 8.88838 24.2918 8.66113 24.8351C8.43388 25.3785 8.10131 25.8719 7.68241 26.2874C7.26352 26.7028 6.7665 27.0321 6.21973 27.2564C5.67296 27.4807 5.08715 27.5956 4.49575 27.5946C3.90435 27.5936 3.31895 27.4767 2.77295 27.2505C2.22695 27.0244 1.73107 26.6934 1.3136 26.2766C0.896128 25.8597 0.565255 25.3651 0.339869 24.821C0.114483 24.2769 -0.00100266 23.6939 6.5579e-06 23.1054C6.5579e-06 16.8853 6.5579e-06 10.6652 6.5579e-06 4.44511C0.030419 3.49928 0.353946 2.58594 0.926267 1.83021C1.49859 1.07448 2.29171 0.513316 3.19698 0.223598C4.08472 -0.0652399 5.04232 -0.062052 5.9281 0.23269C6.81388 0.527433 7.5808 1.09807 8.11541 1.8602C9.54482 3.8027 10.9281 5.76051 12.2961 7.65713L13.2029 8.80428C13.2029 7.27474 13.2029 5.88287 13.2029 4.56747C13.2189 3.86805 13.3954 3.18154 13.719 2.56042C14.0425 1.93929 14.5044 1.40001 15.0695 0.983804C15.6346 0.567594 16.2878 0.285475 16.9793 0.159018C17.6707 0.0325616 18.382 0.0651146 19.0589 0.254189C19.9219 0.533576 20.6786 1.06843 21.2279 1.78727C21.7772 2.5061 22.0929 3.37466 22.1329 4.27686C22.1329 10.6091 22.1329 16.9261 22.1329 23.2584C22.142 24.1986 21.8485 25.117 21.2954 25.8794C20.7423 26.6417 19.9586 27.2079 19.0589 27.4952C18.1512 27.7829 17.174 27.7684 16.2753 27.4537C15.3767 27.1391 14.6056 26.5415 14.079 25.7515C12.4498 23.5184 10.8359 21.2853 9.22205 19.0368L9.00687 19.1286Z" fill="#F93822"/>
<path d="M33.2459 9.41543C33.214 9.50532 33.1883 9.59731 33.1691 9.69074C32.9846 11.5109 32.9846 11.5109 34.7829 11.5109C35.4592 11.5109 36.1509 11.5109 36.8425 11.5109C37.4269 11.5309 37.9796 11.7801 38.3799 12.2043C38.7802 12.6284 38.9956 13.193 38.979 13.7746C39.0581 14.3421 38.9086 14.9178 38.5632 15.3762C38.2177 15.8345 37.7042 16.1385 37.1346 16.2218C36.3507 16.332 35.5586 16.3729 34.7676 16.3442C32.9385 16.3442 32.9385 16.3442 33.2306 18.3173C33.5687 18.3173 33.9376 18.3173 34.3065 18.3173C36.5351 18.3173 38.7638 18.3173 41.0078 18.3173C41.6234 18.3233 42.2318 18.45 42.7983 18.69C43.3647 18.93 43.8781 19.2787 44.3091 19.7161C44.7402 20.1536 45.0804 20.6712 45.3104 21.2395C45.5404 21.8078 45.6556 22.4156 45.6496 23.0283C45.6435 23.6409 45.5163 24.2463 45.2751 24.81C45.0339 25.3737 44.6835 25.8846 44.2439 26.3135C43.8043 26.7425 43.2842 27.081 42.7131 27.3099C42.142 27.5388 41.5312 27.6535 40.9156 27.6475H28.7425C28.1294 27.6758 27.5171 27.5765 26.9448 27.3559C26.3725 27.1353 25.8527 26.7983 25.4187 26.3664C24.9848 25.9346 24.6461 25.4173 24.4245 24.8478C24.2028 24.2783 24.103 23.669 24.1315 23.0589C24.1315 17.2772 24.1315 11.4956 24.1315 5.71396C24.1031 4.92797 24.1755 4.14159 24.3467 3.37377C24.5883 2.41783 25.142 1.56876 25.9209 0.959758C26.6998 0.350756 27.6598 0.01628 28.6503 0.00880169H40.9463C41.5617 -0.0142619 42.1753 0.0880684 42.7494 0.309511C43.3236 0.530953 43.8462 0.866834 44.2852 1.29654C44.7242 1.72624 45.0703 2.24069 45.3023 2.80832C45.5343 3.37594 45.6472 3.98476 45.6342 4.5974C45.664 5.21281 45.5659 5.82772 45.3462 6.40373C45.1264 6.97973 44.7896 7.50445 44.3569 7.94511C43.9242 8.38577 43.4048 8.7329 42.8312 8.96483C42.2576 9.19676 41.6421 9.3085 41.0232 9.29306C38.8099 9.29306 36.612 9.29306 34.4141 9.29306L33.2459 9.41543Z" fill="#F93822"/>
<path d="M58.5908 6.03535L61.4804 2.07386C61.7956 1.58405 62.2049 1.16098 62.6848 0.828881C63.1646 0.496786 63.7057 0.262205 64.2768 0.138584C64.848 0.0149624 65.438 0.00473225 66.0132 0.10848C66.5883 0.212227 67.1372 0.427912 67.6284 0.743171C68.6599 1.39038 69.3973 2.41208 69.6843 3.59146C69.9712 4.77084 69.7851 6.01507 69.1654 7.06014C67.7975 9.18619 66.3373 11.0675 64.8771 13.01C64.6564 13.238 64.5331 13.5423 64.5331 13.8589C64.5331 14.1755 64.6564 14.4798 64.8771 14.7078C66.2605 16.5432 67.6284 18.394 68.9195 20.2753C69.4501 21.0018 69.7548 21.8674 69.7958 22.7646C69.8367 23.6618 69.6122 24.5513 69.15 25.3228C68.7755 26.0833 68.1789 26.7135 67.4385 27.1311C66.698 27.5486 65.8482 27.734 65.0001 27.6629C64.3658 27.6559 63.7418 27.5031 63.1766 27.2166C62.6114 26.93 62.1203 26.5175 61.7417 26.011C60.7119 24.6498 59.7128 23.2579 58.6676 21.7437L55.5936 25.9193C55.2094 26.4451 54.7087 26.8759 54.1303 27.1782C53.552 27.4806 52.9114 27.6464 52.2583 27.6629C51.4295 27.7545 50.5922 27.5982 49.853 27.2141C49.1139 26.83 48.5065 26.2354 48.1084 25.5063C47.6065 24.7384 47.3471 23.8385 47.3635 22.9226C47.38 22.0067 47.6715 21.1167 48.2006 20.3671C49.5224 18.4093 50.9365 16.5127 52.3505 14.6313C52.4528 14.5316 52.534 14.4127 52.5895 14.2813C52.6449 14.15 52.6735 14.009 52.6735 13.8666C52.6735 13.7241 52.6449 13.5831 52.5895 13.4518C52.534 13.3205 52.4528 13.2015 52.3505 13.1018C51.0133 11.3734 49.753 9.56857 48.4619 7.80961C47.9225 7.13363 47.5716 6.32806 47.4448 5.47412C47.318 4.62019 47.4196 3.74807 47.7395 2.9457C48.029 2.21506 48.5082 1.574 49.1281 1.08804C49.7481 0.602074 50.4866 0.288631 51.2682 0.179741C52.0498 0.070852 52.8464 0.170422 53.5767 0.468274C54.3069 0.766126 54.9446 1.25158 55.4246 1.87502C56.5927 3.20572 57.5456 4.59759 58.5908 6.03535Z" fill="#F93822"/>
<path d="M125.62 27.8464C124.875 27.8407 124.146 27.6343 123.51 27.2491C122.874 26.864 122.355 26.3145 122.008 25.6592C120.471 22.6001 119.241 19.541 117.919 16.3749C117.919 16.1608 118.119 15.7325 118.334 15.4878C118.57 15.2505 118.749 14.9645 118.861 14.6501C118.972 14.3357 119.013 14.0006 118.979 13.6689C118.945 13.3372 118.838 13.017 118.666 12.7313C118.493 12.4455 118.259 12.2011 117.981 12.0157C117.577 11.7438 117.086 11.6309 116.603 11.6987C116.12 11.7665 115.68 12.0103 115.368 12.3828C114.995 12.7725 114.787 13.29 114.787 13.8282C114.787 14.3664 114.995 14.884 115.368 15.2736C116.09 15.916 115.952 16.4361 115.629 17.1244C114.492 19.694 113.416 22.2789 112.232 24.772C112.028 25.3492 111.703 25.8768 111.279 26.3204C110.856 26.764 110.343 27.1135 109.774 27.346C109.205 27.5785 108.593 27.6887 107.979 27.6695C107.364 27.6503 106.76 27.5021 106.207 27.2346C105.077 26.6638 104.217 25.6731 103.814 24.4768C103.412 23.2804 103.498 21.9745 104.055 20.8411C105.792 17.1703 107.59 13.4994 109.404 9.79791C110.542 7.46282 111.669 5.12264 112.786 2.77736C113.112 1.9537 113.682 1.24808 114.421 0.753768C115.159 0.259453 116.03 -0.000280516 116.92 0.00890151C117.793 -0.00234172 118.648 0.25253 119.37 0.73925C120.093 1.22597 120.649 1.9212 120.962 2.73147C123.883 8.72724 126.757 14.7383 129.647 20.7647C129.96 21.31 130.159 21.9128 130.233 22.5368C130.307 23.1608 130.253 23.7931 130.075 24.3959C129.897 24.9987 129.598 25.5595 129.197 26.0446C128.796 26.5298 128.301 26.9293 127.741 27.2193C127.054 27.4925 126.344 27.7024 125.62 27.8464Z" fill="#F93822"/>
<path d="M87.1792 9.40022V10.7156C87.1792 14.8454 87.1792 18.9853 87.1792 23.1354C87.1744 24.2244 86.7807 25.2762 86.0683 26.1028C85.3559 26.9294 84.3713 27.4769 83.2905 27.6475C82.207 27.7856 81.1101 27.5243 80.2068 26.9128C79.3036 26.3014 78.6564 25.3821 78.3875 24.3285C78.2537 23.6951 78.197 23.0481 78.2184 22.4013C78.2184 18.7151 78.2184 15.0136 78.2184 11.3274C78.2184 9.43081 78.2184 9.43081 76.3279 9.40022C75.2957 9.46719 74.2722 9.1761 73.4315 8.57651C72.5907 7.97692 71.9848 7.1059 71.7169 6.11173C71.4702 5.41044 71.3984 4.66004 71.5076 3.92503C71.6167 3.19001 71.9036 2.49237 72.3436 1.89207C72.7835 1.29177 73.3634 0.806757 74.0333 0.47873C74.7032 0.150703 75.4432 -0.0105287 76.1896 0.00889225C80.5239 0.00889225 84.8429 0.00889225 89.1465 0.00889225C89.7666 0.00847734 90.3803 0.132503 90.951 0.373551C91.5218 0.614599 92.0378 0.967719 92.4683 1.41179C92.8987 1.85586 93.2348 2.38177 93.4563 2.95805C93.6778 3.53433 93.7803 4.14915 93.7576 4.76574C93.7576 5.98271 93.2718 7.14984 92.407 8.01037C91.5423 8.8709 90.3695 9.35434 89.1465 9.35434L87.1792 9.40022Z" fill="#F93822"/>
<path d="M170.362 9.40032C170.362 13.6371 170.362 17.6751 170.362 21.6366C170.394 22.4871 170.332 23.3385 170.177 24.1756C169.943 25.261 169.303 26.2173 168.387 26.8506C167.471 27.484 166.347 27.747 165.244 27.5865C164.158 27.404 163.174 26.8411 162.469 25.9995C161.765 25.1579 161.386 24.0932 161.401 22.9979C161.401 18.8222 161.401 14.6466 161.401 10.4863V9.40032C160.679 9.40032 160.018 9.40032 159.341 9.40032C158.728 9.40044 158.121 9.27878 157.555 9.04247C156.99 8.80615 156.477 8.45993 156.048 8.02407C155.619 7.58821 155.281 7.07148 155.055 6.50413C154.828 5.93678 154.718 5.33021 154.73 4.71995C154.73 3.52388 155.199 2.37492 156.037 1.51783C156.876 0.660731 158.017 0.163246 159.218 0.131351C163.584 0.131351 167.949 0.131351 172.314 0.131351C172.937 0.115477 173.556 0.228466 174.133 0.463169C174.71 0.697872 175.232 1.04918 175.665 1.49486C176.099 1.94054 176.434 2.4709 176.651 3.05236C176.868 3.63383 176.961 4.25375 176.925 4.8729C176.937 5.47892 176.827 6.0812 176.599 6.64356C176.372 7.20593 176.033 7.71676 175.602 8.14537C175.172 8.57397 174.658 8.91151 174.093 9.13768C173.528 9.36385 172.923 9.474 172.314 9.4615C171.714 9.41562 171.1 9.40032 170.362 9.40032Z" fill="#F93822"/>
<path d="M150.627 17.002C150.447 16.7083 150.372 16.3629 150.414 16.0215C150.456 15.6802 150.612 15.3628 150.857 15.1207C151.997 13.8191 152.724 12.2105 152.945 10.4981C153.167 8.78574 152.874 7.04643 152.102 5.49992C151.46 3.82042 150.302 2.38545 148.792 1.39949C147.283 0.413524 145.499 -0.0731212 143.695 0.00889861C141.389 0.00889861 139.084 0.00889861 136.778 0.00889861C136.159 -0.0255334 135.54 0.0688584 134.96 0.286045C134.38 0.503231 133.852 0.838438 133.409 1.27025C132.966 1.70207 132.619 2.221 132.39 2.7939C132.16 3.3668 132.053 3.98108 132.075 4.5975C132.075 10.7156 132.075 16.8338 132.075 22.9519C132.035 23.5507 132.118 24.1513 132.319 24.7173C132.519 25.2833 132.833 25.803 133.241 26.2448C133.649 26.6867 134.143 27.0415 134.693 27.2879C135.243 27.5343 135.837 27.667 136.44 27.6781C137.059 27.6785 137.671 27.5549 138.241 27.3148C138.811 27.0747 139.326 26.723 139.756 26.2806C140.186 25.8381 140.523 25.3141 140.745 24.7396C140.968 24.1651 141.072 23.5519 141.051 22.9366C141.051 21.4071 141.051 19.8775 141.051 18.348H141.22C142.281 20.5964 143.311 22.8601 144.417 25.0932C144.776 25.9375 145.399 26.6438 146.194 27.1068C146.989 27.5699 147.913 27.7649 148.828 27.6628C149.701 27.5936 150.533 27.2649 151.215 26.7194C151.898 26.1739 152.399 25.4368 152.656 24.6038C152.887 23.9571 152.981 23.2695 152.931 22.5848C152.88 21.9001 152.687 21.2333 152.364 20.627C151.779 19.4493 151.211 18.2103 150.627 17.002ZM143.387 11.3886H143.28C140.467 11.3886 141.082 11.6945 141.005 9.24728C140.928 6.80002 141.005 6.83061 143.449 7.06004C143.731 7.06968 144.008 7.13562 144.264 7.25397C144.52 7.37232 144.749 7.54064 144.939 7.74896C145.128 7.95727 145.273 8.20131 145.366 8.46658C145.458 8.73186 145.496 9.01295 145.478 9.29316C145.474 9.84506 145.253 10.3735 144.862 10.7651C144.471 11.1568 143.942 11.3806 143.387 11.3886Z" fill="#F93822"/>
</svg>
