<svg width="19" height="18" viewBox="0 0 19 18" fill="none" xmlns="http://www.w3.org/2000/svg">
<path fill-rule="evenodd" clip-rule="evenodd" d="M14.9018 3.32247C15.0872 3.24447 15.29 3.21756 15.4893 3.24456C15.6886 3.27156 15.8769 3.35148 16.0348 3.47599C16.1927 3.6005 16.3144 3.76506 16.3871 3.95254C16.4598 4.14001 16.481 4.34355 16.4483 4.54197L14.7473 14.8597C14.5823 15.855 13.4903 16.4257 12.5776 15.93C11.8141 15.5152 10.6801 14.8762 9.66008 14.2095C9.15008 13.8757 7.58783 12.807 7.77983 12.0465C7.94483 11.3962 10.5698 8.95272 12.0698 7.49997C12.6586 6.92922 12.3901 6.59997 11.6948 7.12497C9.96833 8.42847 7.19633 10.4107 6.27983 10.9687C5.47133 11.4607 5.04983 11.5447 4.54583 11.4607C3.62633 11.3077 2.77358 11.0707 2.07758 10.782C1.13708 10.392 1.18283 9.09897 2.07683 8.72247L14.9018 3.32247Z" fill="white"/>
</svg>
