<svg width="19" height="18" viewBox="0 0 19 18" fill="none" xmlns="http://www.w3.org/2000/svg">
<path d="M16.7144 7.51506C16.7158 7.52626 16.7215 7.52905 16.764 7.52835H17.2775C17.3624 7.52861 17.4461 7.50999 17.5227 7.47386C17.5992 7.43774 17.6665 7.38504 17.7196 7.31969C17.7727 7.25434 17.8102 7.17801 17.8293 7.09638C17.8484 7.01474 17.8487 6.9299 17.8301 6.84815C17.8 6.71142 17.7188 6.59093 17.6027 6.51075C17.4866 6.43058 17.3442 6.39663 17.2039 6.41568C17.0676 6.43326 16.9426 6.49946 16.8523 6.6018C16.762 6.70414 16.7127 6.83557 16.7137 6.97132C16.7137 7.042 16.7123 7.43738 16.7144 7.51506ZM8.56214 10.8797C8.41835 10.8804 7.60376 10.8825 7.36859 10.8818C7.18418 10.8805 7.00111 10.8507 6.826 10.7936C6.82186 10.7924 6.81741 10.7927 6.8135 10.7945C6.80959 10.7963 6.80648 10.7995 6.80475 10.8034L6.29829 11.8874C6.29645 11.8913 6.29616 11.8958 6.29747 11.8999C6.29878 11.9041 6.30159 11.9076 6.30537 11.9098C6.384 11.9518 6.54338 11.9966 6.656 11.9966C7.12351 12.0036 7.59101 11.998 8.05922 11.9966C8.06725 11.9966 8.07268 11.9931 8.07551 11.9861L8.57985 10.9049C8.58122 10.9021 8.58184 10.8991 8.58164 10.896C8.58143 10.8929 8.58042 10.89 8.5787 10.8874C8.57698 10.8849 8.57461 10.8828 8.57183 10.8815C8.56904 10.8801 8.56595 10.8795 8.56285 10.8797H8.56214ZM1.18196 7.53675C1.13166 7.53675 1.12812 7.53815 1.12812 7.54375L1.12104 7.59973C1.10191 7.87755 1.09412 7.94613 0.955288 9.74111C0.946787 9.90906 0.931204 10.0133 0.859662 10.1659C0.841245 10.2058 0.836287 10.1953 0.861787 10.2443C0.89437 10.3086 1.34417 11.3101 1.41925 11.4619C1.42492 11.4724 1.42704 11.4759 1.43129 11.4759C1.43696 11.4759 1.45467 11.4577 1.46458 11.4451C1.568 11.3136 1.6556 11.1722 1.72738 11.021C1.94413 10.5767 2.03905 10.0938 2.07163 9.82719C2.08155 9.75021 2.08651 9.67323 2.09288 9.59625L2.23738 7.76559L2.25296 7.56055C2.25509 7.54025 2.25296 7.53745 2.23171 7.53675H1.18196ZM6.28412 10.1659C6.22042 10.0332 6.18774 9.88799 6.1885 9.74111C6.18566 9.68233 6.16654 9.46819 6.02204 7.59973C6.02169 7.58042 6.01931 7.56119 6.01495 7.54235C6.01212 7.53465 5.97812 7.53675 5.96112 7.53675H4.91278C4.89153 7.53745 4.8887 7.54025 4.89153 7.56055L4.9064 7.76559C4.96024 8.45279 5.01525 9.13999 5.07145 9.82719C5.10686 10.1071 5.2032 10.5865 5.41641 11.021C5.48937 11.1715 5.57437 11.3143 5.67849 11.4451C5.68912 11.4577 5.7047 11.4808 5.71249 11.4794C5.72666 11.4773 6.23808 10.3303 6.282 10.2443C6.3075 10.1953 6.30325 10.2058 6.28412 10.1659ZM9.01902 9.52697H8.40135C8.38635 9.52712 8.37156 9.52353 8.35834 9.51653C8.34511 9.50953 8.33389 9.49936 8.3257 9.48694C8.31751 9.47453 8.31262 9.46028 8.31148 9.4455C8.31034 9.43073 8.31299 9.41591 8.31918 9.40241L9.15361 7.56544C9.15478 7.56278 9.15527 7.55986 9.15502 7.55696C9.15477 7.55406 9.15379 7.55127 9.15217 7.54884C9.15056 7.54641 9.14835 7.54441 9.14576 7.54303C9.14316 7.54166 9.14026 7.54094 9.13731 7.54095L8.20372 7.53885C8.1861 7.53892 8.16873 7.5346 8.15324 7.52629C8.13775 7.51798 8.12464 7.50594 8.1151 7.49129C8.10557 7.47664 8.09993 7.45985 8.09871 7.44248C8.09748 7.42511 8.10071 7.40771 8.1081 7.39189L8.7286 6.02449C8.72978 6.02183 8.73027 6.01891 8.73002 6.01601C8.72977 6.01311 8.72879 6.01032 8.72717 6.00789C8.72555 6.00545 8.72335 6.00346 8.72075 6.00208C8.71816 6.00071 8.71526 5.99999 8.71231 6H7.6073C7.59927 6 7.59361 6.0035 7.5903 6.0105L6.93438 7.45768C6.87417 7.57594 6.71196 7.90135 6.65175 8.11408C6.63833 8.15732 6.63352 8.20271 6.63758 8.24775C6.64004 8.30181 6.65626 8.3544 6.68474 8.40063C6.71321 8.44687 6.75303 8.48526 6.8005 8.51227C6.90077 8.56549 7.01253 8.59405 7.12634 8.59554H7.54426C7.5733 8.59554 7.05692 9.63264 6.9535 9.97554C6.94101 10.0144 6.9355 10.0552 6.93721 10.0959C6.93796 10.1522 6.95333 10.2074 6.98185 10.2562C7.01038 10.305 7.05111 10.3457 7.10013 10.3744C7.20638 10.4388 7.34238 10.4584 7.43659 10.4584L8.61243 10.4577C8.62046 10.4577 8.62589 10.4542 8.62873 10.4472L9.03602 9.55147C9.03723 9.54874 9.03771 9.54576 9.03743 9.5428C9.03715 9.53985 9.0361 9.53701 9.0344 9.53456C9.0327 9.53211 9.0304 9.53012 9.02771 9.5288C9.02502 9.52747 9.02203 9.52684 9.01902 9.52697ZM4.11023 6.07208H3.03993C3.03678 6.07188 3.03361 6.07234 3.03065 6.07342C3.02768 6.0745 3.02498 6.07618 3.02271 6.07836C3.02045 6.08053 3.01866 6.08315 3.01748 6.08605C3.0163 6.08894 3.01574 6.09205 3.01585 6.09517C3.01585 6.82856 3.00876 8.0511 3.00876 10.8741C3.00876 11.0756 2.81822 11.0574 2.81043 11.0574H2.28626C2.25792 11.0581 2.25509 11.0602 2.25792 11.0903C2.25863 11.1162 2.5873 11.8349 2.65105 11.9742C2.65813 11.9882 2.6723 11.9973 2.68718 11.9973C2.79839 11.9994 3.23047 12.0036 3.3516 11.9875C3.45997 11.9735 3.5641 11.9455 3.66185 11.8951C3.87435 11.7859 4.00894 11.6019 4.08331 11.3597C4.12015 11.2394 4.13644 11.1127 4.13644 10.9867C4.13786 9.35622 4.1362 7.72546 4.13148 6.09447C4.13169 6.09148 4.13125 6.08847 4.13018 6.08566C4.12912 6.08285 4.12746 6.0803 4.12531 6.07818C4.12316 6.07606 4.12058 6.07441 4.11773 6.07336C4.11488 6.07231 4.11184 6.07187 4.10881 6.07208H4.11023ZM12.4573 10.8979C12.4564 10.8885 12.4507 10.8834 12.4403 10.8825H11.4026C11.3686 10.8818 11.3679 10.8811 11.3672 10.8482V7.58714C11.3672 7.53675 11.3636 7.53815 11.4167 7.53815H12.028C12.0847 7.53815 12.0812 7.54095 12.0812 7.48637V6.47516C12.0812 6.41778 12.0854 6.42198 12.0245 6.42198H9.54532C9.49998 6.42198 9.49219 6.41778 9.49219 6.47306V7.48427C9.49219 7.54235 9.48794 7.53815 9.54886 7.53815H10.1538C10.2069 7.53815 10.2034 7.53535 10.2034 7.58714V10.823C10.2034 10.8895 10.209 10.8818 10.1432 10.8818C9.88107 10.8818 9.3569 10.8804 9.21948 10.8818C9.18548 10.8825 9.17698 10.9028 9.17698 10.9028L8.68327 11.9658C8.68327 11.9658 8.67335 11.9833 8.6776 11.991C8.68185 11.9987 8.68681 11.9966 8.71868 11.9966C9.95686 11.998 11.1948 11.9984 12.4325 11.998C12.4538 11.9973 12.4566 11.9938 12.4573 11.9749V10.8979ZM15.416 8.49757C15.416 8.50737 15.4113 8.51297 15.4019 8.51437C15.1568 8.51857 14.9117 8.51717 14.6673 8.51717C14.6574 8.51577 14.6522 8.51017 14.6517 8.50037C14.6489 8.19666 14.6465 7.89272 14.6447 7.58854C14.6447 7.53815 14.6404 7.53885 14.6942 7.53955L15.2134 7.53745C15.2425 7.53745 15.2708 7.53885 15.2984 7.54795C15.3643 7.56544 15.4118 7.62283 15.4153 7.69071C15.4196 7.99232 15.4167 8.49757 15.416 8.49757ZM17.3073 8.66832C17.1141 8.5685 16.8998 8.51527 16.6818 8.51297H16.5543C16.526 8.51227 16.526 8.51087 16.5246 8.48498V7.74669C16.5251 7.65432 16.5192 7.56241 16.5069 7.47097C16.4903 7.34257 16.4537 7.21747 16.3985 7.10008C16.2982 6.88695 16.1297 6.71235 15.919 6.60322C15.7007 6.48837 15.4579 6.42648 15.2106 6.42268C15.1022 6.42058 14.809 6.42268 14.7006 6.42268C14.651 6.42268 14.6524 6.42548 14.6524 6.37719V6.03219C14.6524 6.0105 14.6454 6.0035 14.6199 6.0049H13.5446C13.5446 6.0049 13.5333 6.0049 13.5283 6.0098C13.5245 6.01353 13.5226 6.01889 13.5226 6.02589V6.40798C13.517 6.43317 13.4823 6.41848 13.4646 6.42338H12.7916C12.7761 6.42478 12.7718 6.42897 12.7704 6.44577V7.48217C12.7704 7.54515 12.7676 7.53955 12.8285 7.53955H13.4752C13.5333 7.53955 13.5262 7.62913 13.5262 7.62913V8.43249C13.5262 8.43249 13.5283 8.51437 13.4837 8.51437H12.4339C12.3858 8.51437 12.3914 8.57175 12.3914 8.57175V9.58296C12.3914 9.58296 12.3843 9.63054 12.4368 9.63054H13.4688C13.5269 9.63054 13.5226 9.62634 13.5226 9.68583V11.9427C13.5226 12.0043 13.5177 11.9994 13.5807 11.9994H14.5937C14.6574 11.9994 14.6517 12.0043 14.6517 11.9434V9.65504C14.6517 9.63474 14.656 9.63054 14.6751 9.63054L16.3206 9.62844C16.389 9.62901 16.4565 9.64354 16.5189 9.67113C16.5752 9.69567 16.6233 9.73544 16.6576 9.78584C16.692 9.83624 16.7112 9.89522 16.713 9.95595C16.7187 10.2324 16.7151 10.5088 16.7151 10.7852C16.7151 10.9665 16.6393 11.042 16.4814 11.042H15.6186C15.6023 11.0434 15.5981 11.0476 15.5988 11.0651C15.7291 11.3707 15.8637 11.6746 16.0025 11.977C16.0054 11.9821 16.0094 11.9864 16.0144 11.9896C16.0193 11.9928 16.025 11.9947 16.0309 11.9952C16.1513 11.9987 16.2717 11.9966 16.3921 11.9973C16.4984 11.9959 16.7583 12.0001 16.8639 11.9903C16.9618 11.9827 17.0586 11.9651 17.1529 11.9378C17.5708 11.8118 17.8435 11.4493 17.8442 11.0189V9.63264C17.8447 9.54353 17.8367 9.45489 17.8201 9.36672C17.8201 9.4213 17.7996 8.91815 17.3073 8.66832Z" fill="white"/>
</svg>
