<svg width="467" height="365" viewBox="0 0 467 365" fill="none" xmlns="http://www.w3.org/2000/svg">
<ellipse cx="294.924" cy="232.098" rx="29.2982" ry="32.8773" fill="#080A0A"/>
<path d="M312.209 223.879C387.525 266.881 445.5 356 454.5 381.5" stroke="black" stroke-width="25"/>
<path d="M107.002 110.766C115.202 86.3759 140.602 72.2036 165.696 78.0169L168.31 78.6225C177.756 80.8107 187.633 80.2097 196.74 76.8926L199.225 75.9875C223.449 67.1645 250.426 78.1889 261.53 101.449L262.622 103.734C266.804 112.496 273.449 119.853 281.745 124.907L283.892 126.214C305.929 139.639 314.138 167.604 302.845 190.779L301.723 193.08C297.475 201.796 295.858 211.561 297.068 221.182L297.394 223.77C300.607 249.313 283.875 273.106 258.736 278.74L256.103 279.33C246.648 281.448 238.015 286.266 231.252 293.196L229.368 295.126C211.385 313.552 182.327 315.309 162.232 299.185L160.197 297.552C152.627 291.478 143.454 287.735 133.796 286.778L131.245 286.525C105.565 283.98 86.0251 262.338 86.1318 236.557L86.1422 234.046C86.1824 224.341 83.3934 214.833 78.1157 206.682L76.7388 204.556C62.7282 182.918 67.4717 154.194 87.6939 138.218L89.7684 136.579C97.3712 130.573 103.062 122.487 106.148 113.307L107.002 110.766Z" fill="#FFFC26"/>
<ellipse cx="27.9122" cy="32.8923" rx="27.9122" ry="32.8923" transform="matrix(0.905914 -0.423461 0.425221 0.90509 276.699 186.77)" fill="#080A0A"/>
<path d="M102.605 44.114C94.0071 82.891 106.321 114.98 115.475 131.049" stroke="black" stroke-width="18"/>
<path d="M38.2368 133.174C70.0615 116.022 100.196 123.455 115.87 130.503" stroke="black" stroke-width="18"/>
<path d="M110.093 125.124L9 31" stroke="black" stroke-width="18"/>
</svg>
