<svg width="318" height="329" viewBox="0 0 318 329" fill="none" xmlns="http://www.w3.org/2000/svg">
<path d="M129.439 11.8632C146.451 -3.85942 172.673 -3.85942 189.62 11.8632V11.8632C199.134 20.6897 212.079 24.8827 224.981 23.3375V23.3375C247.935 20.5883 269.149 35.9774 273.582 58.6519V58.6519C276.072 71.3904 284.055 82.3862 295.385 88.7056V88.7056C315.552 99.9538 323.627 124.887 313.862 145.855V145.855C308.378 157.632 308.35 171.215 313.786 182.992V182.992C323.465 203.96 315.288 228.893 295.075 240.141V240.141C283.718 246.461 275.691 257.456 273.148 270.195V270.195C268.622 292.869 247.346 308.259 224.403 305.509V305.509C211.507 303.964 198.545 308.157 188.995 316.984V316.984C171.983 332.706 145.761 332.706 128.814 316.984V316.984C119.3 308.157 106.355 303.964 93.4531 305.509V305.509C70.4989 308.259 49.2853 292.869 44.8525 270.195V270.195C42.3621 257.456 34.3796 246.461 23.0493 240.141V240.141C2.88208 228.893 -5.1926 203.96 4.57177 182.992V182.992C10.056 171.215 10.0838 157.632 4.64789 145.855V145.855C-5.03053 124.887 3.14636 99.9538 23.3597 88.7056V88.7056C34.7159 82.3862 42.7435 71.3904 45.2861 58.6519V58.6519C49.8118 35.9775 71.0885 20.5883 94.0315 23.3375V23.3375C106.927 24.8827 119.889 20.6897 129.439 11.8632V11.8632Z" fill="#FC9824"/>
</svg>
