<svg width="16" height="17" viewBox="0 0 16 17" fill="none" xmlns="http://www.w3.org/2000/svg">
<path d="M4.6665 6.94463C4.6665 6.47307 4.85383 6.02083 5.18727 5.68739C5.52071 5.35395 5.97295 5.16663 6.4445 5.16663H12.2218C12.4553 5.16663 12.6865 5.21262 12.9022 5.30197C13.118 5.39132 13.314 5.52229 13.4791 5.68739C13.6442 5.85249 13.7751 6.0485 13.8645 6.26421C13.9538 6.47993 13.9998 6.71114 13.9998 6.94463V12.722C13.9998 12.9554 13.9538 13.1867 13.8645 13.4024C13.7751 13.6181 13.6442 13.8141 13.4791 13.9792C13.314 14.1443 13.118 14.2753 12.9022 14.3646C12.6865 14.454 12.4553 14.5 12.2218 14.5H6.4445C6.21101 14.5 5.97981 14.454 5.76409 14.3646C5.54838 14.2753 5.35237 14.1443 5.18727 13.9792C5.02217 13.8141 4.8912 13.6181 4.80185 13.4024C4.71249 13.1867 4.6665 12.9554 4.6665 12.722V6.94463Z" stroke="#424107" stroke-width="1.5" stroke-linecap="round" stroke-linejoin="round"/>
<path d="M2.67467 11.658C2.47 11.5417 2.29977 11.3733 2.18127 11.1699C2.06277 10.9665 2.00023 10.7354 2 10.5V3.83333C2 3.1 2.6 2.5 3.33333 2.5H10C10.5 2.5 10.772 2.75667 11 3.16667" stroke="#424107" stroke-width="1.5" stroke-linecap="round" stroke-linejoin="round"/>
</svg>
