<svg width="23" height="23" viewBox="0 0 23 23" fill="none" xmlns="http://www.w3.org/2000/svg">
<path fill-rule="evenodd" clip-rule="evenodd" d="M1.7998 15.1C1.7998 15.9285 2.47138 16.6 3.2998 16.6H6.13314V15.6H3.2998C3.02366 15.6 2.79981 15.3762 2.79981 15.1L2.7998 3.30005C2.7998 3.02391 3.02366 2.80005 3.2998 2.80005L15.0998 2.80005C15.3759 2.80005 15.5998 3.02391 15.5998 3.30005V6.13338H16.5998V3.30005C16.5998 2.47162 15.9282 1.80005 15.0998 1.80005H3.2998C2.47138 1.80005 1.7998 2.47162 1.7998 3.30005V15.1ZM7.89981 6.39999C7.07138 6.39999 6.39981 7.07156 6.39981 7.89999V19.7C6.39981 20.5284 7.07138 21.2 7.89981 21.2H19.6998C20.5282 21.2 21.1998 20.5284 21.1998 19.7V7.89999C21.1998 7.07156 20.5282 6.39999 19.6998 6.39999H7.89981ZM7.39981 7.89999C7.39981 7.62384 7.62367 7.39999 7.89981 7.39999H19.6998C19.976 7.39999 20.1998 7.62384 20.1998 7.89999V19.7C20.1998 19.9761 19.976 20.2 19.6998 20.2H7.89981C7.62367 20.2 7.39981 19.9761 7.39981 19.7V7.89999Z" fill="white"/>
</svg>
