<svg width="22" height="30" viewBox="0 0 22 30" fill="none" xmlns="http://www.w3.org/2000/svg">
<path d="M17.604 12.5114C18.7926 14.0994 19.4392 16.0716 19.4376 18.1038C19.4362 20.1658 18.7711 22.1648 17.5536 23.7663L17.4517 23.8988L17.4247 23.73C17.4008 23.5839 17.3735 23.4384 17.3427 23.2938C16.7545 20.5313 14.833 18.1613 11.6719 16.2413C9.53603 14.9489 8.314 13.3939 7.99297 11.6251C7.78559 10.4814 7.93907 9.33265 8.23784 8.35015C8.53544 7.36641 8.97715 6.54267 9.35442 6.04642L10.5847 4.44143C10.6352 4.3753 10.6989 4.32201 10.7711 4.2854C10.8434 4.2488 10.9224 4.22981 11.0023 4.22981C11.0823 4.22981 11.1613 4.2488 11.2335 4.2854C11.3058 4.32201 11.3695 4.3753 11.42 4.44143L17.6063 12.5114H17.604ZM19.5489 10.9076L11.3052 0.153963C11.2683 0.105839 11.2218 0.0670633 11.1691 0.0404375C11.1164 0.0138116 11.0589 0 11.0006 0C10.9423 0 10.8847 0.0138116 10.832 0.0404375C10.7794 0.0670633 10.7329 0.105839 10.696 0.153963L2.45226 10.9076L2.42531 10.9439C0.852962 13.0221 -0.00316951 15.6131 8.81767e-06 18.2838C0.00118046 24.7538 4.92678 30 11.0006 30C17.0744 30 22 24.7538 22 18.2838C22.0038 15.6133 21.1476 13.0225 19.5747 10.9451L19.5489 10.9076ZM4.42648 12.4764L5.16462 11.5139L5.18571 11.6914C5.20367 11.833 5.22515 11.9747 5.25015 12.1164C5.72818 14.7864 7.43175 17.0126 10.2812 18.7376C12.758 20.2413 14.2003 21.9701 14.6163 23.8663C14.7791 24.6034 14.8223 25.3648 14.744 26.1175L14.7393 26.16L14.7042 26.1775C13.5506 26.7775 12.2839 27.0887 11.0006 27.0875C6.34212 27.0875 2.56474 23.0651 2.56474 18.1026C2.56474 15.9714 3.2607 14.0151 4.42414 12.4739L4.42648 12.4764Z" fill="white"/>
</svg>
