<svg width="26" height="26" viewBox="0 0 26 26" fill="none" xmlns="http://www.w3.org/2000/svg">
<path fill-rule="evenodd" clip-rule="evenodd" d="M3.521 7.58325C3.521 7.36776 3.6066 7.1611 3.75897 7.00873C3.91135 6.85635 4.11801 6.77075 4.3335 6.77075H21.6668C21.8823 6.77075 22.089 6.85635 22.2414 7.00873C22.3937 7.1611 22.4793 7.36776 22.4793 7.58325C22.4793 7.79874 22.3937 8.0054 22.2414 8.15778C22.089 8.31015 21.8823 8.39575 21.6668 8.39575H4.3335C4.11801 8.39575 3.91135 8.31015 3.75897 8.15778C3.6066 8.0054 3.521 7.79874 3.521 7.58325Z" fill="black"/>
<path opacity="0.7" d="M3.521 13C3.521 12.7845 3.6066 12.5778 3.75897 12.4255C3.91135 12.2731 4.11801 12.1875 4.3335 12.1875H16.2502C16.4657 12.1875 16.6723 12.2731 16.8247 12.4255C16.9771 12.5778 17.0627 12.7845 17.0627 13C17.0627 13.2155 16.9771 13.4222 16.8247 13.5745C16.6723 13.7269 16.4657 13.8125 16.2502 13.8125H4.3335C4.11801 13.8125 3.91135 13.7269 3.75897 13.5745C3.6066 13.4222 3.521 13.2155 3.521 13Z" fill="black"/>
<path opacity="0.4" d="M3.521 18.4167C3.521 18.2013 3.6066 17.9946 3.75897 17.8422C3.91135 17.6898 4.11801 17.6042 4.3335 17.6042H9.75016C9.96565 17.6042 10.1723 17.6898 10.3247 17.8422C10.4771 17.9946 10.5627 18.2013 10.5627 18.4167C10.5627 18.6322 10.4771 18.8389 10.3247 18.9913C10.1723 19.1436 9.96565 19.2292 9.75016 19.2292H4.3335C4.11801 19.2292 3.91135 19.1436 3.75897 18.9913C3.6066 18.8389 3.521 18.6322 3.521 18.4167Z" fill="black"/>
</svg>
